<?xml version="1.0" standalone="no"?>
<!DOCTYPE svg PUBLIC "-//W3C//DTD SVG 1.1//EN" "http://www.w3.org/Graphics/SVG/1.1/DTD/svg11.dtd"><svg t="1690164903144"
    class="icon" viewBox="0 0 1024 1024" version="1.1" xmlns="http://www.w3.org/2000/svg" p-id="5788"
    xmlns:xlink="http://www.w3.org/1999/xlink" width="32" height="32">
    <path
        d="M295.17344715 463.63234077c0 32.66342094 26.56299574 60.30706417 60.30706315 60.30706315a59.7493103 59.7493103 0 0 0 60.30706417-60.30706315c0-32.6285617-26.56299574-60.30706417-60.30706417-60.30706417a59.7493103 59.7493103 0 0 0-60.30706315 60.30706417z m356.36942911-60.30706417c-33.74406843 0-59.7493103 26.31897906-59.7493103 60.30706417a60.41164289 60.41164289 0 0 0 60.86481702 60.30706315c34.30182128 0 59.7493103-27.39962553 59.7493103-60.30706315-0.52289362-32.34968477-27.08588936-60.30706417-60.82995677-60.30706417z"
        fill="#666666" p-id="5789"></path>
    <path
        d="M887.19360034 377.80806809V246.98008511c0-31.33875779-26.77215319-58.11091098-58.07605174-58.11091098H528.03540391l0.48803439-56.05419574a66.79094502 66.79094502 0 0 0 39.94907234-62.1197617A68.77794077 68.77794077 0 0 0 499.76428936 1.98699541a68.77794077 68.77794077 0 0 0-68.67336204 68.67336204 68.67336204 68.67336204 0 0 0 41.90120885 63.16554894l-1.010928 55.078128H177.48752306a52.2893617 52.2893617 0 0 0-39.91421208 15.12905464 59.60987234 59.60987234 0 0 0-18.19669787 42.94699608v130.82798298a83.24466383 83.24466383 0 0 0-80.80449396 83.31438332 83.24466383 83.24466383 0 0 0 80.80449396 83.38410179v163.66570213c0 31.30389753 26.80701243 58.07605072 58.11090995 58.07605072h165.68755813v30.32782979H292.14066417c-31.30389753 0-58.07605072 26.73729396-58.07605174 58.07605174v49.50059541c0 31.30389753 26.77215319 58.07605072 58.07605174 58.07605072h190.43785532c15.68680851 0 27.78308119-16.83717447 27.78308017-32.48912272 0-15.68680851-12.13113191-36.42825498-27.78308017-36.428256H292.14066417c-1.49896136 0-2.02185498-0.48803438-2.021856-2.02185498v-23.46049328c0-1.53382162 0.48803438-2.02185498 2.021856-2.021856h79.34039081c20.98546417 0 40.6811234-18.649872 40.6811234-40.4371057v-58.11091098h95.68953192c15.68680851 0 28.44541277-17.22063013 28.44541276-32.94229787 0-15.72166774-12.75860426-35.90536136-28.44541276-35.90536136h-317.22212732c-1.49896136 0-2.02185498-0.48803438-2.02185498-2.021856V260.0175663c0-1.53382162 0.48803438-2.02185498 2.02185498-2.021856h625.55506417c1.49896136 0 1.98699574 0.48803438 1.98699574 2.021856v344.58689362c0 15.68680851 19.24248511 29.17746383 34.92929362 29.17746383h1.49896136c19.17276562 0 31.02502162-20.07911489 31.54791524-30.18839183 0.52289362-6.55360034 0.52289362-28.79400817 0.52289361-59.60987234 45.97977906-1.010928 82.33831455-37.89235711 82.33831456-82.86120817a83.45382128 83.45382128 0 0 0-81.81542094-83.31438332z"
        fill="#666666" p-id="5790"></path>
    <path
        d="M749.18454468 891.08044256l94.29514928 80.17702162-11.15506417 52.74253583-83.14008511-59.4007149L666.00960034 1024.00000001l-11.15506417-53.4745869 94.33000851-79.44497055z m123.99550672-140.34464681l53.4745869 11.15506417-59.43557413 83.90699541 59.43557413 83.1400851-53.4745869 11.88711524-80.17702161-95.02720034 80.17702161-95.06205958z m-249.4899748 0l80.17702161 95.06205958-80.17702161 94.29514927-53.4745869-11.15506417 59.4007149-83.1400851-59.4007149-83.17494434 53.4745869-11.852256z m124.72755778 72.78679149c12.6191663 0 22.31012732 9.65610179 22.31012732 22.27526809a22.17068936 22.17068936 0 0 1-11.15506417 19.31220459 23.66965072 23.66965072 0 0 1-22.31012732 0 22.17068936 22.17068936 0 0 1-11.12020391-19.31220459c0-12.6191663 9.65610179-22.31012732 22.31012732-22.31012732z m83.90699541-155.96173583l11.15506417 53.47458689-94.29514928 80.17702162-94.33000851-80.17702162 11.15506417-53.47458689 83.17494434 59.40071489 83.14008511-59.40071489z"
        fill="#666666" p-id="5791"></path>
</svg>